# xmcd
#
# Track frame offsets:
#	182
#	12197
#	24215
#	37472
#	44187
#	55795
#	66222
#	78912
#	91210
#	104310
#	114282
#	127505
#
# Disc length: 1864 seconds
#
# Revision: 0
# Processed by: cddbd v1.5.1PL0 Copyright (c) Steve Scherf et al.
# Submitted via: EasyCDDAExtractor 5.0.5.1
#
DISCID=9007460c
DTITLE=Hank Williams Jr and Sr - Their Greatest Hits
DYEAR=1994
DGENRE=Country
TTITLE0=Long Gone Lonesome Blues
TTITLE1=Mansion On The Hill
TTITLE2=You Win Again
TTITLE3=Kaw-Liga
TTITLE4=I'm So Lonesome I Could Cry
TTITLE5=Moanin' The Blues
TTITLE6=There's A Tear In My Beer
TTITLE7=Your Cheatin' Heart
TTITLE8=Jambalaya (On The Bayou)
TTITLE9=Honky Tonk Blues
TTITLE10=Hey, Good Lookin'
TTITLE11=Cold, Cold Heart
EXTD=
EXTT0=
EXTT1=
EXTT2=
EXTT3=
EXTT4=
EXTT5=
EXTT6=
EXTT7=
EXTT8=
EXTT9=
EXTT10=
EXTT11=
PLAYORDER=
